<?xml version="1.0" standalone="no"?>
<!DOCTYPE svg PUBLIC "-//W3C//DTD SVG 20010904//EN"
 "http://www.w3.org/TR/2001/REC-SVG-20010904/DTD/svg10.dtd">
<svg version="1.0" xmlns="http://www.w3.org/2000/svg"
 width="1024.000000pt" height="1024.000000pt" viewBox="0 0 1024.000000 1024.000000"
 preserveAspectRatio="xMidYMid meet">
<metadata>
Created by potrace 1.11, written by Peter Selinger 2001-2013
</metadata>
<g transform="translate(0.000000,1024.000000) scale(0.100000,-0.100000)"
fill="#000000" stroke="none">
<path d="M5440 8734 c-146 -26 -288 -86 -410 -172 -68 -48 -4445 -4417 -4490
-4482 -20 -27 -25 -47 -25 -95 0 -110 67 -189 171 -201 99 -12 93 -17 539 425
348 346 416 409 451 419 164 47 309 -122 233 -271 -14 -26 -169 -189 -420
-440 -392 -393 -398 -399 -410 -452 -36 -160 119 -292 269 -230 26 11 219 197
627 604 540 539 594 589 636 600 48 13 84 11 134 -9 92 -36 141 -159 100 -256
-10 -24 -321 -342 -941 -962 -701 -701 -932 -937 -946 -970 -45 -100 9 -228
108 -262 42 -14 71 -16 124 -7 44 8 86 49 1355 1316 1204 1202 1314 1309 1353
1319 124 30 238 -47 250 -167 9 -102 71 -35 -1152 -1258 -754 -755 -1137
-1145 -1148 -1170 -32 -70 -18 -160 34 -216 55 -58 154 -79 224 -48 27 12 211
190 589 568 303 303 566 558 585 568 68 35 162 23 218 -28 34 -31 64 -95 65
-137 2 -88 -9 -101 -454 -545 -232 -232 -429 -437 -440 -458 -48 -93 -16 -197
79 -258 39 -25 52 -28 109 -25 49 3 71 10 96 29 18 13 278 270 578 569 300
300 558 552 575 561 168 87 351 -95 264 -262 -10 -20 -172 -189 -360 -376
-190 -189 -350 -357 -361 -379 -53 -101 -10 -229 91 -273 48 -20 128 -19 170
2 19 10 542 526 1163 1146 621 621 1126 1121 1122 1111 -29 -68 -24 -130 13
-191 49 -81 156 -115 247 -77 24 10 220 199 586 565 309 309 565 556 584 565
68 32 160 18 214 -34 30 -29 61 -97 61 -135 0 -91 25 -64 -778 -867 -426 -427
-765 -774 -775 -794 -28 -55 -20 -141 19 -196 53 -76 157 -106 240 -69 27 12
212 191 590 568 307 308 568 560 590 572 90 49 209 7 260 -91 22 -43 22 -124
-1 -168 -9 -19 -106 -124 -213 -232 -108 -109 -203 -210 -211 -225 -8 -16 -15
-55 -15 -88 -1 -71 19 -112 77 -159 35 -28 46 -31 112 -33 67 -2 77 1 112 27
76 56 1569 1564 1607 1622 74 115 126 243 152 373 13 70 13 297 0 360 -31 141
-77 253 -151 370 -47 76 -3214 3250 -3320 3329 -117 86 -258 150 -391 176 -88
17 -278 20 -364 4z"/>
</g>
</svg>
